# xmcd
#
# Track frame offsets: 
#        150
#        14685
#        33227
#        48677
#        61847
#        87027
#        103762
#        121662
#        139145
#        156480
#        173817
#        190790
#        206395
#        226752
#        238545
#
# Disc length: 3377 seconds
#
# Revision: 12
# Processed by: cddbd v1.5.2PL0 Copyright (c) Steve Scherf et al.
# Submitted via: ExactAudioCopy v0.99pb5
#
DISCID=c00d2f0f
DTITLE=leonardo - te amo demais
DYEAR=2002
DGENRE=Sertanejo
TTITLE0=te amo demais
TTITLE1=tudo me lembra você
TTITLE2=e não vou mais deixar você tão só
TTITLE3=ei, pissiu!!!
TTITLE4=do fundo do meu coração
TTITLE5=virtudes e defeitos
TTITLE6=tua sombra em meu caminho
TTITLE7=feito tatuagem
TTITLE8=seu
TTITLE9=amarrado e carimbado
TTITLE10=pedaços de paixão
TTITLE11=a malvada
TTITLE12=viajei
TTITLE13=fome de amor
TTITLE14=vem sonhar
EXTD=SAULO
EXTT0=
EXTT1=
EXTT2=
EXTT3=
EXTT4=
EXTT5=
EXTT6=
EXTT7=
EXTT8=
EXTT9=
EXTT10=
EXTT11=
EXTT12=
EXTT13=
EXTT14=
PLAYORDER=
